<svg width="80" height="80" viewBox="0 0 80 80" fill="none" xmlns="http://www.w3.org/2000/svg">
<path d="M10.1331 31.5764H3.42482L2.88574 41.5191L3.42482 49.0659H11.8102L17.9195 50.2039L22.4716 54.0373L27.0237 55.1753H38.8231L41.758 54.0373L42.297 51.6414L40.6798 49.0659H42.7163L44.8126 47.8081L44.3335 44.7534L43.1356 43.3159L47.3283 42.7769L48.7058 40.0816L46.8491 37.6858L44.8126 37.2665L46.8491 35.2301L46.5496 32.7144L44.8126 31.5764L40.6798 31.217V28.7014L38.2241 26.3057H30.3179L22.8909 26.7249L20.0758 28.7014L16.7216 31.5764H10.1331Z" fill="white"/>
<path d="M51.7951 51.3421L50.6258 48.638L50.4533 27.1L49.3167 26.8901L49.2524 25.8224L50.6258 25.3625L76.8026 25.6346V26.3966L75.9121 26.5352V46.1533L75.1813 50.5382L71.5272 52.8768H55.0838L51.7951 51.3421Z" fill="white"/>
<path d="M49.4632 25.5166H76.6545C76.9738 25.5166 77.2309 25.8211 77.2309 26.1978C77.2309 26.5744 76.9738 26.8789 76.6545 26.8789H49.4632C49.1438 26.8789 48.8867 26.5744 48.8867 26.1978C48.8867 25.8211 49.1438 25.5166 49.4632 25.5166Z" stroke="#222222" stroke-width="1.2" stroke-linecap="round" stroke-linejoin="round"/>
<path d="M50.4321 27.1255V47.7468C50.4321 50.4554 52.6649 52.6485 55.4173 52.6485H70.7004C73.4528 52.6485 75.6856 50.4528 75.6856 47.7468V27.1511" stroke="#222222" stroke-width="1.5" stroke-linecap="round" stroke-linejoin="round"/>
<path d="M43.8096 43.521C46.0857 47.4691 48.968 48.177 50.3077 48.1503" stroke="#222222" stroke-width="1.5" stroke-linecap="round" stroke-linejoin="round"/>
<path d="M50.4321 28.8983C50.2535 28.8769 42.0693 28.5697 42.0693 31.3238" stroke="#222222" stroke-width="1.5" stroke-linecap="round" stroke-linejoin="round"/>
<path d="M36.4266 37.3902H44.0153C45.6798 37.3902 47.0276 36.0652 47.0276 34.4277C47.0276 32.7929 45.6798 31.4653 44.0153 31.4653H29.1978" stroke="#222222" stroke-width="1.5" stroke-linecap="round" stroke-linejoin="round"/>
<path d="M36.4263 37.3901H45.4603C47.1247 37.3901 48.4725 38.7151 48.4725 40.3525C48.4725 41.9874 47.1247 43.315 45.4603 43.315H36.4263" stroke="#222222" stroke-width="1.5" stroke-linecap="round" stroke-linejoin="round"/>
<path d="M36.4263 43.3149H41.8472C43.5117 43.3149 44.8594 44.6399 44.8594 46.2774C44.8594 47.9122 43.5117 49.2398 41.8472 49.2398H36.4263" stroke="#222222" stroke-width="1.5" stroke-linecap="round" stroke-linejoin="round"/>
<path d="M36.4265 49.2371H39.4387C41.1059 49.2371 42.451 50.5593 42.451 52.1995C42.451 53.0169 42.1154 53.7595 41.5687 54.2937C41.0274 54.8333 40.2696 55.1619 39.4414 55.1619H27.9176C25.8769 55.1619 23.8877 54.5635 22.2152 53.463C21.6522 53.0943 21.1299 52.6723 20.6481 52.1995C19.6847 51.2512 18.548 50.5139 17.3166 50.0064C16.0797 49.4988 14.7455 49.2371 13.3814 49.2371H3.55176" stroke="#222222" stroke-width="1.5" stroke-linecap="round" stroke-linejoin="round"/>
<path d="M3.55176 31.468H15.284C16.7699 31.468 18.188 30.8242 19.1461 29.697L19.7226 29.0318C20.4127 28.2278 21.2544 27.584 22.1908 27.1352C23.2219 26.6277 24.3722 26.3579 25.5576 26.3579H36.8622C38.8921 26.3579 40.5375 27.974 40.5375 29.9641V31.4039" stroke="#222222" stroke-width="1.5" stroke-linecap="round" stroke-linejoin="round"/>
<path d="M52.7461 38.2771V47.1991C52.7461 49.0395 54.2617 50.5301 56.1318 50.5301H69.9832C71.8533 50.5301 73.3689 49.0395 73.3689 47.1991V38.2771H52.7461V38.2771Z" stroke="#222222" stroke-width="1.5" stroke-linecap="round" stroke-linejoin="round"/>
<path d="M14.583 53.4338C13.3516 57.9028 11.5248 60.7343 9.47601 60.7343C6.81291 60.7343 4.51787 55.9367 3.4326 48.9862C3.00499 46.2668 2.76953 43.2216 2.76953 40.0028C2.76953 36.7839 3.00499 33.736 3.4326 31.0194C4.51787 24.0634 6.81561 19.2659 9.47872 19.2659C11.5058 19.2659 13.3272 22.0573 14.5586 26.4595" stroke="#222222" stroke-width="1.5" stroke-linecap="round" stroke-linejoin="round"/>
</svg>
