<svg width="80" height="80" viewBox="0 0 80 80" fill="none" xmlns="http://www.w3.org/2000/svg">
<path d="M31.3552 32.3407L20.8239 31.0607L20.0225 40.7866L20.9979 50.1437L31.1137 49.3489L36.0632 52.0585L41.4935 54.4251L48.8007 54.7116L55.4632 54.9026L57.5407 52.6102L56.9915 50.3894L56.7049 49.076L59.5227 47.2134L59.9525 44.4911L57.9466 42.6046L59.7137 40.933V38.5928L58.1854 36.5153L59.9525 33.9362L59.4988 31.8587L57.8273 30.3543L49.2305 30.211L47.8216 31.5483L46.4844 30.3543L46.0757 29.0824L48.2867 25.475L50.0322 20.6457V16.7474L48.2867 15.3511L46.0757 15.8166L43.7483 21.6931L38.3372 29.0824L34.2644 31.8752L31.3552 32.3407Z" fill="white"/>
<path d="M21.2417 50.2679L29.129 49.3809C29.1457 49.3809 29.1652 49.378 29.1819 49.378C30.4719 49.3723 31.6782 49.318 32.854 49.813C34.0297 50.3108 34.9825 50.7973 35.9047 51.7329C36.37 52.2022 37.0609 52.5656 37.5958 52.9318C39.2006 54.0163 41.0979 54.6028 43.0453 54.5942H43.9202" stroke="#222222" stroke-width="1.5" stroke-linecap="round" stroke-linejoin="round"/>
<path d="M48.4778 54.5571L43.917 54.5915" stroke="#222222" stroke-width="1.5" stroke-linecap="round" stroke-linejoin="round"/>
<path d="M20.9434 31.0941C20.9434 31.0941 28.7359 32.1757 32.3104 32.2387C33.7285 32.2644 36.5787 30.8109 37.8491 29.3459C39.2895 27.6863 40.9444 25.7807 42.2427 23.8378C45.5721 18.862 44.778 15.394 48.2439 15.394C51.25 15.394 50.7207 21.9408 47.5613 26.1927C44.778 29.941 46.862 31.1485 48.0851 31.1485" stroke="#222222" stroke-width="1.5" stroke-linecap="round" stroke-linejoin="round"/>
<path d="M31.4162 53.361C30.2405 57.799 28.4992 60.6059 26.5462 60.6059C24.0053 60.6059 21.8155 55.8418 20.7818 48.9432C20.3723 46.2449 20.1494 43.2205 20.1494 40.0244C20.1494 36.8283 20.3723 33.8039 20.7818 31.1056C21.8155 24.2041 24.0053 19.4429 26.5462 19.4429C28.4797 19.4429 30.2182 22.2126 31.3911 26.5847" stroke="#222222" stroke-width="1.5" stroke-linecap="round" stroke-linejoin="round"/>
<path d="M56.8499 42.6313H47.1238C45.4681 42.6313 44.126 44.0098 44.126 45.7101C44.126 47.4105 45.4681 48.7889 47.1238 48.7889H56.8499C58.5055 48.7889 59.8477 47.4105 59.8477 45.7101C59.8477 44.0098 58.5055 42.6313 56.8499 42.6313Z" stroke="#222222" stroke-width="1.5" stroke-linecap="round" stroke-linejoin="round"/>
<path d="M54.4454 48.7888H50.1326C48.4769 48.7888 47.1348 50.1672 47.1348 51.8676C47.1348 53.568 48.4769 54.9464 50.1326 54.9464H54.4454C56.101 54.9464 57.4432 53.568 57.4432 51.8676C57.4432 50.1672 56.101 48.7888 54.4454 48.7888Z" stroke="#222222" stroke-width="1.5" stroke-linecap="round" stroke-linejoin="round"/>
<path d="M56.8499 36.4766H47.1238C45.4681 36.4766 44.126 37.855 44.126 39.5554C44.126 41.2557 45.4681 42.6341 47.1238 42.6341H56.8499C58.5055 42.6341 59.8477 41.2557 59.8477 39.5554C59.8477 37.855 58.5055 36.4766 56.8499 36.4766Z" stroke="#222222" stroke-width="1.5" stroke-linecap="round" stroke-linejoin="round"/>
<path d="M56.8525 30.3188H50.1326C48.4769 30.3188 47.1348 31.6973 47.1348 33.3976C47.1348 35.098 48.4769 36.4764 50.1326 36.4764H56.8525C58.5081 36.4764 59.8503 35.098 59.8503 33.3976C59.8503 31.6973 58.5081 30.3188 56.8525 30.3188Z" stroke="#222222" stroke-width="1.5" stroke-linecap="round" stroke-linejoin="round"/>
</svg>
