<svg width="80" height="80" viewBox="0 0 80 80" fill="none" xmlns="http://www.w3.org/2000/svg">
<path d="M27.8105 33.2855L15.382 31.8569L14.8735 38.3793L15.6353 51.0556L22.7353 50.3852L29.2563 51.0556L34.924 54.9865L38.0322 55.2607L37.5751 61.6293L40.6223 64.7984H44.5227L47.5089 61.7817L48.6059 55.4435L51.9273 54.6817L52.6282 51.7869L51.1351 49.6843L53.6947 48.8007L54.5175 45.6621L53.969 44.0166L56.681 41.5484L55.8582 38.6535L54.3346 37.7394L55.8582 35.3626L54.9745 32.7724L52.5246 31.8569L53.8103 22.857L58.0959 21.7141L61.3102 18.9999L64.1673 17.7142L65.0959 12.4286L63.1673 8.99996L59.2388 3.35715L53.8103 2L48.5246 3.35715L45.0246 6.28564L43.0961 6.99994L41.6675 12.4286L42.5961 13.4285L45.0246 18.5713L48.5246 21.7141L46.8818 26.6427L35.3819 27.2855L32.5247 29.9283L27.8105 33.2855Z" fill="white"/>
<path d="M46.2056 31.9702L41.7544 32.0463" stroke="#222222" stroke-width="1.5" stroke-linecap="round" stroke-linejoin="round"/>
<path d="M39.1206 55.4003L49.2834 55.3665H49.7533C50.5608 55.3609 51.298 55.0369 51.8213 54.5016C52.3531 53.9719 52.6795 53.2365 52.6767 52.4307C52.6738 50.9853 51.6272 49.7907 50.2485 49.5597C50.0825 49.5287 49.9137 49.5118 49.742 49.5118L50.2569 49.5062L51.7763 49.5005C53.3913 49.4949 54.6997 48.182 54.6997 46.5732V46.5647C54.6912 44.9475 53.3744 43.643 51.7566 43.6458H51.2586L53.8387 43.6317C55.4537 43.6261 56.762 42.3132 56.762 40.7044V40.6959C56.7536 39.0787 55.4396 37.7742 53.819 37.777L53.0312 37.7827C54.604 37.7263 55.8617 36.4303 55.8561 34.8469C55.8504 33.3311 54.6968 32.0942 53.2253 31.9505C53.1268 31.9364 53.0256 31.9336 52.9299 31.9336H52.913L46.4417 31.9589M52.9327 37.7855L52.2462 37.7911L46.4557 37.8137L52.2462 37.7883L53.0199 37.7827C52.9918 37.7883 52.9608 37.7883 52.9299 37.7883L52.9327 37.7855Z" stroke="#222222" stroke-width="1.5" stroke-linecap="round" stroke-linejoin="round"/>
<path d="M52.2436 37.7937V37.7993L46.4531 37.8191L52.2436 37.7937Z" stroke="#222222" stroke-width="1.5" stroke-linecap="round" stroke-linejoin="round"/>
<path d="M51.2529 43.6514L45.9492 43.6739" stroke="#222222" stroke-width="1.5" stroke-linecap="round" stroke-linejoin="round"/>
<path d="M46.453 37.8193H45.9297" stroke="#222222" stroke-width="1.5" stroke-linecap="round" stroke-linejoin="round"/>
<path d="M46.4951 49.5258L49.7308 49.5117H49.7392" stroke="#222222" stroke-width="1.5" stroke-linecap="round" stroke-linejoin="round"/>
<path d="M51.2531 43.6514L46.4756 43.6739" stroke="#222222" stroke-width="1.5" stroke-linecap="round" stroke-linejoin="round"/>
<path d="M15.9702 51.098L24.0481 50.2133C25.3762 50.2076 26.6142 50.1485 27.824 50.6443C29.0254 51.1402 29.999 51.622 30.9359 52.5546C31.4086 53.0195 31.8841 53.4872 32.4299 53.8506C34.0675 54.9297 36.234 55.4115 38.2232 55.4031L39.1151 55.3974" stroke="#222222" stroke-width="1.5" stroke-linecap="round" stroke-linejoin="round"/>
<path d="M46.4956 49.5258L49.7313 49.5117H49.7397" stroke="#222222" stroke-width="1.5" stroke-linecap="round" stroke-linejoin="round"/>
<path d="M15.6665 32.0125C15.6665 32.0125 23.8682 33.0888 27.5175 33.1536C28.9637 33.1789 31.1077 31.3898 32.0362 30.2741L32.5933 29.6148C33.2629 28.8203 34.0817 28.1779 34.9905 27.7328C35.9921 27.2284 37.112 26.958 38.2656 26.9551L46.9034 26.9382" stroke="#222222" stroke-width="1.5" stroke-linecap="round" stroke-linejoin="round"/>
<path d="M26.3581 54.1747C25.1595 58.5897 23.3784 61.3874 21.3864 61.3874C18.7922 61.3874 16.5582 56.6456 15.5003 49.7795C15.0839 47.0944 14.856 44.0825 14.856 40.9016C14.856 37.7207 15.0839 34.7116 15.5003 32.0238C16.5554 25.1548 18.7922 20.4158 21.3864 20.4158C23.3616 20.4158 25.1341 23.1741 26.3327 27.5243" stroke="#222222" stroke-width="1.5" stroke-linecap="round" stroke-linejoin="round"/>
<path d="M50.2571 49.5088C50.2571 49.5259 50.2514 49.5429 50.2485 49.56" stroke="#222222" stroke-width="1.5" stroke-linecap="round" stroke-linejoin="round"/>
<path d="M38.5101 55.4001C38.1837 56.4088 37.8854 57.3132 37.621 58.0852C37.4381 58.6177 37.3452 59.1727 37.3452 59.7278C37.3452 60.7195 37.6378 61.6972 38.1949 62.5452C39.81 64.9964 43.1188 65.6501 45.5469 63.9991L45.6904 63.8976C46.8665 63.0975 47.6572 61.8437 47.8682 60.4378C48.0679 59.0995 48.3465 57.3639 48.6729 55.3691" stroke="#222222" stroke-width="1.5" stroke-linecap="round" stroke-linejoin="round"/>
<path d="M47.8066 25.1997C47.8066 25.1997 49.8325 26.8085 53.0512 26.5887" stroke="#222222" stroke-width="1.5" stroke-linecap="round" stroke-linejoin="round"/>
<path d="M61.1212 13.3983C61.6351 9.15177 58.6015 5.29058 54.3454 4.77407C50.0892 4.25757 46.2223 7.28133 45.7084 11.5278C45.1945 15.7743 48.2281 19.6355 52.4842 20.152C56.7404 20.6685 60.6073 17.6448 61.1212 13.3983Z" stroke="#222222" stroke-width="1.5" stroke-linecap="round" stroke-linejoin="round"/>
<path d="M56.0138 2.44309C52.0185 1.40908 47.9641 2.84317 45.474 5.79588C45.0942 6.24668 44.2698 6.54251 43.6761 6.70311C43.2456 6.82144 42.9136 7.15954 42.8039 7.59061L41.7291 11.7379C41.6109 12.1915 41.7628 12.6649 42.1089 12.9804C42.5535 13.389 43.1274 14.0736 43.3694 15.0175C44.2782 18.5506 47.0328 21.4977 50.8199 22.481C54.8152 23.515 58.8697 22.0809 61.3597 19.1282C61.7396 18.6774 62.564 18.3815 63.1576 18.2209C63.5881 18.1026 63.9201 17.7645 64.0299 17.3334L65.1047 13.1861C65.2228 12.7325 65.0709 12.2592 64.7248 11.9436C64.2803 11.5351 63.7063 10.8504 63.4643 9.90657C62.5555 6.37346 59.801 3.42639 56.0138 2.44309V2.44309Z" stroke="#222222" stroke-width="1.5" stroke-linecap="round" stroke-linejoin="round"/>
<path d="M53.4986 7.69482L48.6816 11.8816" stroke="#222222" stroke-width="1.5" stroke-linecap="round" stroke-linejoin="round"/>
<path d="M58.352 13.3552L53.5322 17.542" stroke="#222222" stroke-width="1.5" stroke-linecap="round" stroke-linejoin="round"/>
<path d="M57.1449 9.47559L49.7788 15.8741" stroke="#222222" stroke-width="1.5" stroke-linecap="round" stroke-linejoin="round"/>
<path d="M48.5608 21.802C48.5608 21.802 47.3059 26.1606 45.5952 31.9703" stroke="#222222" stroke-width="1.5" stroke-linecap="round" stroke-linejoin="round"/>
<path d="M53.9966 23.0161C53.8447 24.4108 53.3157 27.7551 52.6123 31.956" stroke="#222222" stroke-width="1.5" stroke-linecap="round" stroke-linejoin="round"/>
</svg>
