<svg width="80" height="80" viewBox="0 0 80 80" fill="none" xmlns="http://www.w3.org/2000/svg">
<path d="M15.109 25.7477L5.52673 25.239L4.79932 33.7969L5.5895 44.1878L15.6643 43.042L20.4449 45.0965L25.7391 49.0474L35.2608 49.8376L42.2539 49.0474V51.6155L43.5182 55.0528L40.9106 58.016L41.3057 66.7079L44.7825 73.4245L48.8914 76.6642L61.0207 77.4544L66.5519 74.6493L70.3448 69.355L71.8066 62.678L71.3325 57.4628L68.4879 54.6577L60.6256 52.8403L56.7932 52.5637L56.2796 49.0474L53.1189 44.6619L47.4691 41.9358L46.2048 40.3554L44.7825 37.6688L47.074 36.9181L48.2592 34.4291L47.074 31.9005L45.138 31.2683L46.4813 29.4904V26.5668L44.3874 25.1049H40.6735V24.3938L39.8833 21.233L37.5128 19.9815L34.3521 13.5288L32.8319 12.604L31.0511 13.1976V16.2504L32.8319 19.9815L23.5041 20.4903L21.5537 22.6951L18.5009 25.7477H15.109Z" fill="white"/>
<path d="M35.6743 31.3542H45.2049C46.8467 31.3542 48.1771 32.7262 48.1771 34.4163C48.1771 36.1065 46.8467 37.4784 45.2049 37.4784H35.6743C34.0325 37.4784 32.7021 36.1065 32.7021 34.4163C32.7021 32.7262 34.0325 31.3542 35.6743 31.3542V31.3542Z" stroke="#222222" stroke-width="1.5" stroke-linecap="round" stroke-linejoin="round"/>
<path d="M40.6875 25.2271H43.7813C45.4231 25.2271 46.7535 26.599 46.7535 28.2891C46.7535 29.9793 45.4231 31.3512 43.7813 31.3512H41.1461" stroke="#222222" stroke-width="1.5" stroke-linecap="round" stroke-linejoin="round"/>
<path d="M43.7417 43.5998H36.2236C34.5818 43.5998 33.2515 42.2278 33.2515 40.5377C33.2515 38.8475 34.5818 37.4756 36.2236 37.4756H37.1747" stroke="#222222" stroke-width="1.5" stroke-linecap="round" stroke-linejoin="round"/>
<path d="M37.5712 49.6975L36.4361 49.7209C36.3342 49.7209 36.2266 49.7326 36.1247 49.7209C35.4227 49.645 34.7943 49.321 34.3245 48.8364C33.7866 48.2789 33.4526 47.517 33.4526 46.6675C33.4526 44.9716 34.7858 43.5996 36.4304 43.5996H41.1122C42.2558 43.5996 43.0823 44.2535 43.4815 45.2168" stroke="#222222" stroke-width="1.5" stroke-linecap="round" stroke-linejoin="round"/>
<path d="M42.0831 49.1461C40.5999 49.508 37.6221 49.7211 36.9767 49.7211H35.0802L30.3361 49.3854C28.3207 49.3854 25.0514 48.7666 23.4011 47.6311C22.8463 47.2487 22.3283 46.8167 21.8528 46.3263C20.9017 45.3455 19.7779 44.5836 18.5664 44.0581C17.3436 43.5356 16.0302 43.2642 14.6829 43.2642L6.06934 44.2479" stroke="#222222" stroke-width="1.5" stroke-linecap="round" stroke-linejoin="round"/>
<path d="M6.19092 25.2303L16.5651 25.8988C18.0313 25.8988 19.4325 25.2332 20.3751 24.0685L20.944 23.3825C21.6234 22.5535 22.4556 21.2166 23.3812 20.7524C24.3974 20.2299 25.5353 19.9497 26.7043 19.9497H36.7586C38.8589 19.9497 40.5629 21.7041 40.5629 23.87V25.2274" stroke="#222222" stroke-width="1.5" stroke-linecap="round" stroke-linejoin="round"/>
<path d="M16.5905 48.2994C15.3762 52.9174 13.5731 55.8452 11.552 55.8452C8.9224 55.8452 6.65792 50.8857 5.58795 43.7019C5.16619 40.8909 4.93408 37.7412 4.93408 34.4164C4.93408 31.0916 5.16619 27.939 5.58795 25.1308C6.65792 17.9441 8.9224 12.9846 11.552 12.9846C13.5533 12.9846 15.3507 15.8687 16.565 20.4195" stroke="#222222" stroke-width="1.5" stroke-linecap="round" stroke-linejoin="round"/>
<path d="M42.083 49.1458C42.2104 47.9198 42.5869 46.7697 43.1898 45.7889C43.303 45.605 43.3992 45.4153 43.4813 45.2168" stroke="#222222" stroke-width="1.5" stroke-linecap="round" stroke-linejoin="round"/>
<path d="M44.9589 37.7822L45.893 39.8314C46.5752 41.4135 47.699 42.12 49.1199 42.6191C51.6816 43.5182 54.399 45.0857 55.7152 47.9552C57.7136 52.3046 56.3266 57.2699 52.6072 58.8783C49.1624 60.367 44.8259 58.2594 42.952 54.1932C42.1821 52.5235 41.9132 50.7691 42.083 49.1461" stroke="#222222" stroke-width="1.5" stroke-linecap="round" stroke-linejoin="round"/>
<path d="M41.5962 37.4873L43.2634 40.9026C43.9512 42.3125 44.0248 43.9209 43.4814 45.217" stroke="#222222" stroke-width="1.5" stroke-linecap="round" stroke-linejoin="round"/>
<path d="M32.9402 19.7743L31.0777 15.9066C30.455 14.631 30.8541 13.1393 31.9665 12.6723C33.0167 12.2315 34.2933 12.9846 34.8311 14.231L37.341 19.9048" stroke="#222222" stroke-width="1.5" stroke-linecap="round" stroke-linejoin="round"/>
<path d="M40.5685 24.2085V27.7376C40.5685 30.0641 39.1673 31.2464 37.5171 31.2464C35.8668 31.2464 33.9081 30.1342 33.9081 27.7347V25.1659C32.94 25.1659 31.6719 26.5379 31.6719 28.228C31.6719 29.9182 33.1806 31.2901 36.0225 31.2901" stroke="#222222" stroke-width="1.5" stroke-linecap="round" stroke-linejoin="round"/>
<path d="M71.7451 58.8345C71.7451 60.1189 71.8781 63.6451 70.8279 67.5975C70.5053 68.8147 69.6249 69.9444 69.1296 70.9778C66.8453 75.7679 63.1627 77.3384 56.5985 77.3384C48.9785 77.3384 45.1657 75.4031 43.0399 70.2713C42.6436 69.3139 41.8482 68.2893 41.5935 67.1976C40.7132 63.4057 40.9849 60.0721 40.9849 58.8315" stroke="#222222" stroke-width="1.5" stroke-linecap="round" stroke-linejoin="round"/>
<mask id="mask0_4179_576" style="mask-type:alpha" maskUnits="userSpaceOnUse" x="36" y="56" width="40" height="22">
<path d="M73.4775 63.7747L73.6247 63.3953" stroke="black" stroke-linecap="round" stroke-linejoin="round"/>
<path d="M70.3213 63.7747L70.4685 63.3953" stroke="black" stroke-linecap="round" stroke-linejoin="round"/>
<path d="M75.0542 60.523L75.2014 60.1406" stroke="black" stroke-linecap="round" stroke-linejoin="round"/>
<path d="M71.8979 60.523L72.048 60.1406" stroke="black" stroke-linecap="round" stroke-linejoin="round"/>
<path d="M68.7446 60.523L68.8918 60.1406" stroke="black" stroke-linecap="round" stroke-linejoin="round"/>
<path d="M73.4775 57.2682L73.6247 56.8887" stroke="black" stroke-linecap="round" stroke-linejoin="round"/>
<path d="M70.3213 57.2682L70.4685 56.8887" stroke="black" stroke-linecap="round" stroke-linejoin="round"/>
<path d="M73.4775 70.2843L73.6247 69.9019" stroke="black" stroke-linecap="round" stroke-linejoin="round"/>
<path d="M70.3213 70.2843L70.4685 69.9019" stroke="black" stroke-linecap="round" stroke-linejoin="round"/>
<path d="M75.0542 67.0294L75.2014 66.6499" stroke="black" stroke-linecap="round" stroke-linejoin="round"/>
<path d="M71.8979 67.0294L72.048 66.6499" stroke="black" stroke-linecap="round" stroke-linejoin="round"/>
<path d="M68.7446 67.0294L68.8918 66.6499" stroke="black" stroke-linecap="round" stroke-linejoin="round"/>
<path d="M73.4775 63.7747L73.6247 63.3953" stroke="black" stroke-linecap="round" stroke-linejoin="round"/>
<path d="M70.3213 63.7747L70.4685 63.3953" stroke="black" stroke-linecap="round" stroke-linejoin="round"/>
<path d="M73.4775 76.7909L73.6247 76.4114" stroke="black" stroke-linecap="round" stroke-linejoin="round"/>
<path d="M70.3213 76.7909L70.4685 76.4114" stroke="black" stroke-linecap="round" stroke-linejoin="round"/>
<path d="M75.0542 73.536L75.2014 73.1565" stroke="black" stroke-linecap="round" stroke-linejoin="round"/>
<path d="M71.8979 73.536L72.048 73.1565" stroke="black" stroke-linecap="round" stroke-linejoin="round"/>
<path d="M68.7446 73.536L68.8918 73.1565" stroke="black" stroke-linecap="round" stroke-linejoin="round"/>
<path d="M73.4775 70.2843L73.6247 69.9019" stroke="black" stroke-linecap="round" stroke-linejoin="round"/>
<path d="M70.3213 70.2843L70.4685 69.9019" stroke="black" stroke-linecap="round" stroke-linejoin="round"/>
<path d="M67.1655 63.7747L67.3155 63.3953" stroke="black" stroke-linecap="round" stroke-linejoin="round"/>
<path d="M64.0122 63.7747L64.1594 63.3953" stroke="black" stroke-linecap="round" stroke-linejoin="round"/>
<path d="M68.7446 60.523L68.8918 60.1406" stroke="black" stroke-linecap="round" stroke-linejoin="round"/>
<path d="M65.5889 60.523L65.7361 60.1406" stroke="black" stroke-linecap="round" stroke-linejoin="round"/>
<path d="M62.4326 60.523L62.5826 60.1406" stroke="black" stroke-linecap="round" stroke-linejoin="round"/>
<path d="M67.1655 57.2682L67.3155 56.8887" stroke="black" stroke-linecap="round" stroke-linejoin="round"/>
<path d="M64.0122 57.2682L64.1594 56.8887" stroke="black" stroke-linecap="round" stroke-linejoin="round"/>
<path d="M67.1655 70.2843L67.3155 69.9019" stroke="black" stroke-linecap="round" stroke-linejoin="round"/>
<path d="M64.0122 70.2843L64.1594 69.9019" stroke="black" stroke-linecap="round" stroke-linejoin="round"/>
<path d="M68.7446 67.0294L68.8918 66.6499" stroke="black" stroke-linecap="round" stroke-linejoin="round"/>
<path d="M65.5889 67.0294L65.7361 66.6499" stroke="black" stroke-linecap="round" stroke-linejoin="round"/>
<path d="M62.4326 67.0294L62.5826 66.6499" stroke="black" stroke-linecap="round" stroke-linejoin="round"/>
<path d="M67.1655 63.7747L67.3155 63.3953" stroke="black" stroke-linecap="round" stroke-linejoin="round"/>
<path d="M64.0122 63.7747L64.1594 63.3953" stroke="black" stroke-linecap="round" stroke-linejoin="round"/>
<path d="M67.1655 76.7909L67.3155 76.4114" stroke="black" stroke-linecap="round" stroke-linejoin="round"/>
<path d="M64.0122 76.7909L64.1594 76.4114" stroke="black" stroke-linecap="round" stroke-linejoin="round"/>
<path d="M68.7446 73.536L68.8918 73.1565" stroke="black" stroke-linecap="round" stroke-linejoin="round"/>
<path d="M65.5889 73.536L65.7361 73.1565" stroke="black" stroke-linecap="round" stroke-linejoin="round"/>
<path d="M62.4326 73.536L62.5826 73.1565" stroke="black" stroke-linecap="round" stroke-linejoin="round"/>
<path d="M67.1655 70.2843L67.3155 69.9019" stroke="black" stroke-linecap="round" stroke-linejoin="round"/>
<path d="M64.0122 70.2843L64.1594 69.9019" stroke="black" stroke-linecap="round" stroke-linejoin="round"/>
<path d="M60.856 63.7747L61.0031 63.3953" stroke="black" stroke-linecap="round" stroke-linejoin="round"/>
<path d="M57.6997 63.7747L57.8497 63.3953" stroke="black" stroke-linecap="round" stroke-linejoin="round"/>
<path d="M62.4326 60.523L62.5826 60.1406" stroke="black" stroke-linecap="round" stroke-linejoin="round"/>
<path d="M59.2793 60.523L59.4265 60.1406" stroke="black" stroke-linecap="round" stroke-linejoin="round"/>
<path d="M56.123 60.523L56.2702 60.1406" stroke="black" stroke-linecap="round" stroke-linejoin="round"/>
<path d="M60.856 57.2682L61.0031 56.8887" stroke="black" stroke-linecap="round" stroke-linejoin="round"/>
<path d="M57.6997 57.2682L57.8497 56.8887" stroke="black" stroke-linecap="round" stroke-linejoin="round"/>
<path d="M60.856 70.2843L61.0031 69.9019" stroke="black" stroke-linecap="round" stroke-linejoin="round"/>
<path d="M57.6997 70.2843L57.8497 69.9019" stroke="black" stroke-linecap="round" stroke-linejoin="round"/>
<path d="M62.4326 67.0294L62.5826 66.6499" stroke="black" stroke-linecap="round" stroke-linejoin="round"/>
<path d="M59.2793 67.0294L59.4265 66.6499" stroke="black" stroke-linecap="round" stroke-linejoin="round"/>
<path d="M56.123 67.0294L56.2702 66.6499" stroke="black" stroke-linecap="round" stroke-linejoin="round"/>
<path d="M60.856 63.7747L61.0031 63.3953" stroke="black" stroke-linecap="round" stroke-linejoin="round"/>
<path d="M57.6997 63.7747L57.8497 63.3953" stroke="black" stroke-linecap="round" stroke-linejoin="round"/>
<path d="M60.856 76.7909L61.0031 76.4114" stroke="black" stroke-linecap="round" stroke-linejoin="round"/>
<path d="M57.6997 76.7909L57.8497 76.4114" stroke="black" stroke-linecap="round" stroke-linejoin="round"/>
<path d="M62.4326 73.536L62.5826 73.1565" stroke="black" stroke-linecap="round" stroke-linejoin="round"/>
<path d="M59.2793 73.536L59.4265 73.1565" stroke="black" stroke-linecap="round" stroke-linejoin="round"/>
<path d="M56.123 73.536L56.2702 73.1565" stroke="black" stroke-linecap="round" stroke-linejoin="round"/>
<path d="M60.856 70.2843L61.0031 69.9019" stroke="black" stroke-linecap="round" stroke-linejoin="round"/>
<path d="M57.6997 70.2843L57.8497 69.9019" stroke="black" stroke-linecap="round" stroke-linejoin="round"/>
<path d="M54.5464 63.7747L54.6936 63.3953" stroke="black" stroke-linecap="round" stroke-linejoin="round"/>
<path d="M51.3901 63.7747L51.5373 63.3953" stroke="black" stroke-linecap="round" stroke-linejoin="round"/>
<path d="M56.123 60.523L56.2702 60.1406" stroke="black" stroke-linecap="round" stroke-linejoin="round"/>
<path d="M52.9668 60.523L53.1168 60.1406" stroke="black" stroke-linecap="round" stroke-linejoin="round"/>
<path d="M49.8135 60.523L49.9607 60.1406" stroke="black" stroke-linecap="round" stroke-linejoin="round"/>
<path d="M54.5464 57.2682L54.6936 56.8887" stroke="black" stroke-linecap="round" stroke-linejoin="round"/>
<path d="M51.3901 57.2682L51.5373 56.8887" stroke="black" stroke-linecap="round" stroke-linejoin="round"/>
<path d="M54.5464 70.2843L54.6936 69.9019" stroke="black" stroke-linecap="round" stroke-linejoin="round"/>
<path d="M51.3901 70.2843L51.5373 69.9019" stroke="black" stroke-linecap="round" stroke-linejoin="round"/>
<path d="M56.123 67.0294L56.2702 66.6499" stroke="black" stroke-linecap="round" stroke-linejoin="round"/>
<path d="M52.9668 67.0294L53.1168 66.6499" stroke="black" stroke-linecap="round" stroke-linejoin="round"/>
<path d="M49.8135 67.0294L49.9607 66.6499" stroke="black" stroke-linecap="round" stroke-linejoin="round"/>
<path d="M54.5464 63.7747L54.6936 63.3953" stroke="black" stroke-linecap="round" stroke-linejoin="round"/>
<path d="M51.3901 63.7747L51.5373 63.3953" stroke="black" stroke-linecap="round" stroke-linejoin="round"/>
<path d="M54.5464 76.7909L54.6936 76.4114" stroke="black" stroke-linecap="round" stroke-linejoin="round"/>
<path d="M51.3901 76.7909L51.5373 76.4114" stroke="black" stroke-linecap="round" stroke-linejoin="round"/>
<path d="M56.123 73.536L56.2702 73.1565" stroke="black" stroke-linecap="round" stroke-linejoin="round"/>
<path d="M52.9668 73.536L53.1168 73.1565" stroke="black" stroke-linecap="round" stroke-linejoin="round"/>
<path d="M49.8135 73.536L49.9607 73.1565" stroke="black" stroke-linecap="round" stroke-linejoin="round"/>
<path d="M54.5464 70.2843L54.6936 69.9019" stroke="black" stroke-linecap="round" stroke-linejoin="round"/>
<path d="M51.3901 70.2843L51.5373 69.9019" stroke="black" stroke-linecap="round" stroke-linejoin="round"/>
<path d="M48.2344 63.7747L48.3844 63.3953" stroke="black" stroke-linecap="round" stroke-linejoin="round"/>
<path d="M45.0811 63.7747L45.2282 63.3953" stroke="black" stroke-linecap="round" stroke-linejoin="round"/>
<path d="M49.8135 60.523L49.9607 60.1406" stroke="black" stroke-linecap="round" stroke-linejoin="round"/>
<path d="M46.6577 60.523L46.8049 60.1406" stroke="black" stroke-linecap="round" stroke-linejoin="round"/>
<path d="M43.5015 60.523L43.6515 60.1406" stroke="black" stroke-linecap="round" stroke-linejoin="round"/>
<path d="M48.2344 57.2682L48.3844 56.8887" stroke="black" stroke-linecap="round" stroke-linejoin="round"/>
<path d="M45.0811 57.2682L45.2282 56.8887" stroke="black" stroke-linecap="round" stroke-linejoin="round"/>
<path d="M48.2344 70.2843L48.3844 69.9019" stroke="black" stroke-linecap="round" stroke-linejoin="round"/>
<path d="M45.0811 70.2843L45.2282 69.9019" stroke="black" stroke-linecap="round" stroke-linejoin="round"/>
<path d="M49.8135 67.0294L49.9607 66.6499" stroke="black" stroke-linecap="round" stroke-linejoin="round"/>
<path d="M46.6577 67.0294L46.8049 66.6499" stroke="black" stroke-linecap="round" stroke-linejoin="round"/>
<path d="M43.5015 67.0294L43.6515 66.6499" stroke="black" stroke-linecap="round" stroke-linejoin="round"/>
<path d="M48.2344 63.7747L48.3844 63.3953" stroke="black" stroke-linecap="round" stroke-linejoin="round"/>
<path d="M45.0811 63.7747L45.2282 63.3953" stroke="black" stroke-linecap="round" stroke-linejoin="round"/>
<path d="M48.2344 76.7909L48.3844 76.4114" stroke="black" stroke-linecap="round" stroke-linejoin="round"/>
<path d="M45.0811 76.7909L45.2282 76.4114" stroke="black" stroke-linecap="round" stroke-linejoin="round"/>
<path d="M49.8135 73.536L49.9607 73.1565" stroke="black" stroke-linecap="round" stroke-linejoin="round"/>
<path d="M46.6577 73.536L46.8049 73.1565" stroke="black" stroke-linecap="round" stroke-linejoin="round"/>
<path d="M43.5015 73.536L43.6515 73.1565" stroke="black" stroke-linecap="round" stroke-linejoin="round"/>
<path d="M48.2344 70.2843L48.3844 69.9019" stroke="black" stroke-linecap="round" stroke-linejoin="round"/>
<path d="M45.0811 70.2843L45.2282 69.9019" stroke="black" stroke-linecap="round" stroke-linejoin="round"/>
<path d="M41.9248 63.7747L42.072 63.3953" stroke="black" stroke-linecap="round" stroke-linejoin="round"/>
<path d="M38.7686 63.7747L38.9186 63.3953" stroke="black" stroke-linecap="round" stroke-linejoin="round"/>
<path d="M43.5015 60.523L43.6515 60.1406" stroke="black" stroke-linecap="round" stroke-linejoin="round"/>
<path d="M40.3481 60.523L40.4953 60.1406" stroke="black" stroke-linecap="round" stroke-linejoin="round"/>
<path d="M37.1919 60.523L37.3391 60.1406" stroke="black" stroke-linecap="round" stroke-linejoin="round"/>
<path d="M41.9248 57.2682L42.072 56.8887" stroke="black" stroke-linecap="round" stroke-linejoin="round"/>
<path d="M38.7686 57.2682L38.9186 56.8887" stroke="black" stroke-linecap="round" stroke-linejoin="round"/>
<path d="M41.9248 70.2843L42.072 69.9019" stroke="black" stroke-linecap="round" stroke-linejoin="round"/>
<path d="M38.7686 70.2843L38.9186 69.9019" stroke="black" stroke-linecap="round" stroke-linejoin="round"/>
<path d="M43.5015 67.0294L43.6515 66.6499" stroke="black" stroke-linecap="round" stroke-linejoin="round"/>
<path d="M40.3481 67.0294L40.4953 66.6499" stroke="black" stroke-linecap="round" stroke-linejoin="round"/>
<path d="M37.1919 67.0294L37.3391 66.6499" stroke="black" stroke-linecap="round" stroke-linejoin="round"/>
<path d="M41.9248 63.7747L42.072 63.3953" stroke="black" stroke-linecap="round" stroke-linejoin="round"/>
<path d="M38.7686 63.7747L38.9186 63.3953" stroke="black" stroke-linecap="round" stroke-linejoin="round"/>
<path d="M41.9248 76.7909L42.072 76.4114" stroke="black" stroke-linecap="round" stroke-linejoin="round"/>
<path d="M38.7686 76.7909L38.9186 76.4114" stroke="black" stroke-linecap="round" stroke-linejoin="round"/>
<path d="M43.5015 73.536L43.6515 73.1565" stroke="black" stroke-linecap="round" stroke-linejoin="round"/>
<path d="M40.3481 73.536L40.4953 73.1565" stroke="black" stroke-linecap="round" stroke-linejoin="round"/>
<path d="M37.1919 73.536L37.3391 73.1565" stroke="black" stroke-linecap="round" stroke-linejoin="round"/>
<path d="M41.9248 70.2843L42.072 69.9019" stroke="black" stroke-linecap="round" stroke-linejoin="round"/>
<path d="M38.7686 70.2843L38.9186 69.9019" stroke="black" stroke-linecap="round" stroke-linejoin="round"/>
</mask>
<g mask="url(#mask0_4179_576)">
<path d="M56.6269 65.2973L47.3176 64.239L42.9077 61.8778C45.6274 59.8816 50.6983 58.5659 56.6269 58.5659C62.465 58.5659 67.4715 59.8417 70.22 61.787L68.0268 63.1781C63.2385 65.2973 56.6269 65.2973 56.6269 65.2973Z" fill="#222222"/>
</g>
<path d="M42.9072 61.8778C45.6269 59.8816 50.6978 58.5659 56.6264 58.5659C62.2301 58.5659 67.0677 59.7413 69.8776 61.556" stroke="#222222" stroke-width="1.5" stroke-linecap="round" stroke-linejoin="round"/>
<path d="M56.6151 52.4736C64.9936 52.5291 71.7446 55.3547 71.7446 58.8343C71.7446 62.3138 64.8606 65.1949 56.366 65.1949C47.8713 65.1949 40.9873 62.3459 40.9873 58.8343C40.9873 57.5723 41.8768 56.3935 43.4116 55.4058" stroke="#222222" stroke-width="1.5" stroke-linecap="round" stroke-linejoin="round"/>
</svg>
